<svg width="680" height="680" viewBox="0 0 680 680" xmlns="http://www.w3.org/2000/svg">
  <circle cx="340" cy="340" r="310" fill="#09111F"/>
  <circle cx="340" cy="340" r="310" fill="none" stroke="#C8A84B" stroke-width="5.5"/>
  <circle cx="340" cy="340" r="284" fill="none" stroke="#C8A84B" stroke-width="1.2" opacity="0.22"/>
  <circle cx="290" cy="76" r="2" fill="#E8D5A0" opacity="0.45"/>
  <circle cx="368" cy="62" r="1.6" fill="#E8D5A0" opacity="0.4"/>
  <circle cx="426" cy="82" r="2.2" fill="#E8D5A0" opacity="0.5"/>
  <circle cx="334" cy="104" r="1.4" fill="#E8D5A0" opacity="0.35"/>
  <circle cx="476" cy="68" r="1.7" fill="#E8D5A0" opacity="0.4"/>
  <circle cx="214" cy="88" r="2" fill="#E8D5A0" opacity="0.4"/>
  <circle cx="170" cy="124" r="1.7" fill="#E8D5A0" opacity="0.38"/>
  <circle cx="538" cy="116" r="2" fill="#E8D5A0" opacity="0.42"/>
  <circle cx="582" cy="162" r="1.7" fill="#E8D5A0" opacity="0.38"/>
  <circle cx="308" cy="120" r="1.4" fill="#E8D5A0" opacity="0.32"/>
  <circle cx="274" cy="150" r="1.7" fill="#E8D5A0" opacity="0.35"/>
  <circle cx="78" cy="232" r="1.7" fill="#E8D5A0" opacity="0.35"/>
  <circle cx="64" cy="292" r="2" fill="#E8D5A0" opacity="0.38"/>
  <circle cx="70" cy="390" r="1.4" fill="#E8D5A0" opacity="0.3"/>
  <circle cx="90" cy="444" r="1.7" fill="#E8D5A0" opacity="0.28"/>
  <circle cx="598" cy="226" r="1.7" fill="#E8D5A0" opacity="0.32"/>
  <circle cx="608" cy="392" r="1.4" fill="#E8D5A0" opacity="0.28"/>
  <circle cx="594" cy="444" r="1.7" fill="#E8D5A0" opacity="0.28"/>
  <circle cx="132" cy="526" r="1.7" fill="#E8D5A0" opacity="0.28"/>
  <circle cx="200" cy="578" r="1.4" fill="#E8D5A0" opacity="0.25"/>
  <circle cx="274" cy="604" r="2" fill="#E8D5A0" opacity="0.3"/>
  <circle cx="340" cy="618" r="1.4" fill="#E8D5A0" opacity="0.25"/>
  <circle cx="408" cy="598" r="1.7" fill="#E8D5A0" opacity="0.28"/>
  <circle cx="484" cy="572" r="1.7" fill="#E8D5A0" opacity="0.25"/>
  <circle cx="548" cy="528" r="1.4" fill="#E8D5A0" opacity="0.25"/>
  <circle cx="248" cy="510" r="1.4" fill="#E8D5A0" opacity="0.25"/>
  <circle cx="446" cy="544" r="1.4" fill="#E8D5A0" opacity="0.25"/>
  <circle cx="308" cy="176" r="1.7" fill="#E8D5A0" opacity="0.35"/>
  <circle cx="442" cy="168" r="1.4" fill="#E8D5A0" opacity="0.3"/>
  <circle cx="564" cy="180" r="1.4" fill="#E8D5A0" opacity="0.3"/>
  <circle cx="116" cy="192" r="1.7" fill="#E8D5A0" opacity="0.32"/>
  <circle cx="162" cy="338" r="1.4" fill="#E8D5A0" opacity="0.25"/>
  <circle cx="518" cy="338" r="1.4" fill="#E8D5A0" opacity="0.25"/>
  <circle cx="204" cy="452" r="1.7" fill="#E8D5A0" opacity="0.25"/>
  <circle cx="504" cy="456" r="1.4" fill="#E8D5A0" opacity="0.22"/>
  <circle cx="568" cy="300" r="1.7" fill="#E8D5A0" opacity="0.28"/>
  <circle cx="148" cy="266" r="1.4" fill="#E8D5A0" opacity="0.28"/>
  <circle cx="376" cy="112" r="1.3" fill="#E8D5A0" opacity="0.32"/>
  <circle cx="456" cy="130" r="1.2" fill="#E8D5A0" opacity="0.3"/>
  <line x1="104" y1="200" x2="138" y2="158" stroke="#C8A84B" stroke-width="1.6" opacity="0.38"/>
  <line x1="138" y1="158" x2="182" y2="184" stroke="#C8A84B" stroke-width="1.6" opacity="0.38"/>
  <line x1="182" y1="184" x2="214" y2="144" stroke="#C8A84B" stroke-width="1.6" opacity="0.38"/>
  <line x1="214" y1="144" x2="254" y2="170" stroke="#C8A84B" stroke-width="1.6" opacity="0.38"/>
  <circle cx="104" cy="200" r="4.5" fill="#C8A84B" opacity="0.65"/>
  <circle cx="138" cy="158" r="4.5" fill="#C8A84B" opacity="0.68"/>
  <circle cx="182" cy="184" r="4.5" fill="#C8A84B" opacity="0.65"/>
  <circle cx="214" cy="144" r="5.2" fill="#C8A84B" opacity="0.72"/>
  <circle cx="254" cy="170" r="4.5" fill="#C8A84B" opacity="0.65"/>
  <line x1="424" y1="130" x2="502" y2="98" stroke="#C8A84B" stroke-width="1.6" opacity="0.38"/>
  <line x1="502" y1="98" x2="544" y2="150" stroke="#C8A84B" stroke-width="1.6" opacity="0.38"/>
  <line x1="544" y1="150" x2="504" y2="190" stroke="#C8A84B" stroke-width="1.6" opacity="0.38"/>
  <line x1="504" y1="190" x2="424" y2="130" stroke="#C8A84B" stroke-width="1.6" opacity="0.28"/>
  <circle cx="424" cy="130" r="4.5" fill="#C8A84B" opacity="0.65"/>
  <circle cx="502" cy="98" r="5.2" fill="#C8A84B" opacity="0.72"/>
  <circle cx="544" cy="150" r="4.5" fill="#C8A84B" opacity="0.65"/>
  <circle cx="504" cy="190" r="4.2" fill="#C8A84B" opacity="0.6"/>
  <line x1="64" y1="300" x2="102" y2="260" stroke="#C8A84B" stroke-width="1.6" opacity="0.35"/>
  <line x1="102" y1="260" x2="144" y2="280" stroke="#C8A84B" stroke-width="1.6" opacity="0.35"/>
  <line x1="144" y1="280" x2="132" y2="328" stroke="#C8A84B" stroke-width="1.6" opacity="0.35"/>
  <circle cx="64" cy="300" r="4.2" fill="#C8A84B" opacity="0.6"/>
  <circle cx="102" cy="260" r="5" fill="#C8A84B" opacity="0.65"/>
  <circle cx="144" cy="280" r="4.2" fill="#C8A84B" opacity="0.6"/>
  <circle cx="132" cy="328" r="4" fill="#C8A84B" opacity="0.55"/>
  <line x1="546" y1="246" x2="586" y2="274" stroke="#C8A84B" stroke-width="1.6" opacity="0.35"/>
  <line x1="586" y1="274" x2="590" y2="328" stroke="#C8A84B" stroke-width="1.6" opacity="0.35"/>
  <line x1="590" y1="328" x2="560" y2="370" stroke="#C8A84B" stroke-width="1.6" opacity="0.35"/>
  <circle cx="546" cy="246" r="4.2" fill="#C8A84B" opacity="0.6"/>
  <circle cx="586" cy="274" r="5" fill="#C8A84B" opacity="0.65"/>
  <circle cx="590" cy="328" r="4.2" fill="#C8A84B" opacity="0.6"/>
  <circle cx="560" cy="370" r="4" fill="#C8A84B" opacity="0.55"/>
  <line x1="110" y1="458" x2="152" y2="416" stroke="#C8A84B" stroke-width="1.6" opacity="0.32"/>
  <line x1="152" y1="416" x2="198" y2="436" stroke="#C8A84B" stroke-width="1.6" opacity="0.32"/>
  <line x1="198" y1="436" x2="236" y2="404" stroke="#C8A84B" stroke-width="1.6" opacity="0.32"/>
  <circle cx="110" cy="458" r="4" fill="#C8A84B" opacity="0.55"/>
  <circle cx="152" cy="416" r="4.5" fill="#C8A84B" opacity="0.6"/>
  <circle cx="198" cy="436" r="4" fill="#C8A84B" opacity="0.55"/>
  <circle cx="236" cy="404" r="4.5" fill="#C8A84B" opacity="0.6"/>
  <line x1="474" y1="436" x2="514" y2="372" stroke="#C8A84B" stroke-width="1.6" opacity="0.32"/>
  <line x1="514" y1="372" x2="554" y2="396" stroke="#C8A84B" stroke-width="1.6" opacity="0.32"/>
  <line x1="554" y1="396" x2="532" y2="444" stroke="#C8A84B" stroke-width="1.6" opacity="0.32"/>
  <line x1="532" y1="444" x2="474" y2="436" stroke="#C8A84B" stroke-width="1.6" opacity="0.26"/>
  <circle cx="474" cy="436" r="4" fill="#C8A84B" opacity="0.55"/>
  <circle cx="514" cy="372" r="5" fill="#C8A84B" opacity="0.65"/>
  <circle cx="554" cy="396" r="4" fill="#C8A84B" opacity="0.55"/>
  <circle cx="532" cy="444" r="4" fill="#C8A84B" opacity="0.55"/>
  <line x1="258" y1="300" x2="308" y2="272" stroke="#C8A84B" stroke-width="1.6" opacity="0.45"/>
  <line x1="308" y1="272" x2="364" y2="250" stroke="#C8A84B" stroke-width="1.6" opacity="0.45"/>
  <line x1="364" y1="250" x2="412" y2="228" stroke="#C8A84B" stroke-width="1.6" opacity="0.45"/>
  <circle cx="308" cy="272" r="4" fill="#C8A84B" opacity="0.65"/>
  <circle cx="364" cy="250" r="4.8" fill="#C8A84B" opacity="0.7"/>
  <polygon transform="translate(258,300)" points="0,-58 13.5,-18.6 55.2,-17.9 21.9,7.1 34.1,46.9 0,23 -34.1,46.9 -21.9,7.1 -55.2,-17.9 -13.5,-18.6" fill="#C8A84B"/>
  <polygon transform="translate(412,228)" points="0,-45 10.6,-14.6 42.8,-13.9 17.1,5.6 26.5,36.4 0,18 -26.5,36.4 -17.1,5.6 -42.8,-13.9 -10.6,-14.6" fill="#C8A84B"/>
  <text x="340" y="494" text-anchor="middle" font-family="-apple-system, BlinkMacSystemFont, Helvetica Neue, Helvetica, Arial, sans-serif" font-size="46" font-weight="600" letter-spacing="14" textLength="268" lengthAdjust="spacing" fill="#EDE8DF">kindred</text>
  <text x="340" y="542" text-anchor="middle" font-family="-apple-system, BlinkMacSystemFont, Helvetica Neue, Helvetica, Arial, sans-serif" font-size="46" font-weight="600" letter-spacing="14" textLength="268" lengthAdjust="spacing" fill="#C8A84B">stars</text>
</svg>
